<svg xmlns="http://www.w3.org/2000/svg" viewBox="0 0 240 240"><path fill="#111" d="M42 181h156l-16 31H58z"/><path fill="#ff3b30" stroke="#111" stroke-width="10" d="M120 20c18 34 66 56 66 105 0 39-29 71-66 71s-66-32-66-71c0-33 19-54 42-78 2 22 10 34 24 43 8-26 2-47 0-70z"/><path fill="#ffea00" stroke="#111" stroke-width="8" d="M121 91c17 20 28 33 28 51 0 18-13 33-29 33s-29-15-29-33c0-14 8-27 19-39 1 13 5 19 11 24 4-13 2-24 0-36z"/><text x="120" y="223" text-anchor="middle" font-family="monospace" font-size="22" font-weight="900">TOKEN BURN</text></svg>