<svg xmlns="http://www.w3.org/2000/svg">
  <symbol id="feed" viewBox="0 0 24 24"><path d="M5 5h14M5 10h14M5 15h9M5 19h6"/></symbol>
  <symbol id="library" viewBox="0 0 24 24"><path d="M3.5 7.5h7l2-2h8v13h-17z"/><path d="M3.5 9.5h17"/></symbol>
  <symbol id="pin" viewBox="0 0 24 24"><path d="M12 21s6-5.3 6-11a6 6 0 1 0-12 0c0 5.7 6 11 6 11z"/><circle cx="12" cy="10" r="2"/></symbol>
  <symbol id="user" viewBox="0 0 24 24"><circle cx="12" cy="8" r="3.5"/><path d="M5 20c.8-4 3.2-6 7-6s6.2 2 7 6"/></symbol>
  <symbol id="compose" viewBox="0 0 24 24"><path d="M5 19l1-4L16.8 4.2a2.1 2.1 0 0 1 3 3L9 18z"/><path d="M14.5 6.5l3 3"/></symbol>
  <symbol id="plus" viewBox="0 0 24 24"><path d="M12 5v14M5 12h14"/></symbol>
  <symbol id="close" viewBox="0 0 24 24"><path d="M6 6l12 12M18 6L6 18"/></symbol>
  <symbol id="check" viewBox="0 0 24 24"><path d="M5 12.5l4.2 4.2L19 7"/></symbol>
  <symbol id="send" viewBox="0 0 24 24"><path d="M3.5 4.5l17 7.5-17 7.5 3-7.5z"/><path d="M6.5 12h14"/></symbol>
  <symbol id="import" viewBox="0 0 24 24"><path d="M12 3v12M7 10l5 5 5-5"/><path d="M4 20h16"/></symbol>
  <symbol id="image" viewBox="0 0 24 24"><rect x="3.5" y="4.5" width="17" height="15" rx="2"/><circle cx="9" cy="10" r="1.5"/><path d="M5.5 17l4.5-4 3 3 2.5-2 3 3"/></symbol>
  <symbol id="trash" viewBox="0 0 24 24"><path d="M5 7h14M9 7V4h6v3M7 7l1 13h8l1-13"/><path d="M10 11v5M14 11v5"/></symbol>
  <symbol id="share" viewBox="0 0 24 24"><circle cx="18" cy="5" r="2.5"/><circle cx="6" cy="12" r="2.5"/><circle cx="18" cy="19" r="2.5"/><path d="M8.2 10.8l7.6-4.5M8.2 13.2l7.6 4.5"/></symbol>
  <symbol id="bookmark" viewBox="0 0 24 24"><path d="M7 4h10v16l-5-3-5 3z"/></symbol>
  <symbol id="edit" viewBox="0 0 24 24"><path d="M5 19l1-4L16.5 4.5a2.1 2.1 0 0 1 3 3L9 18z"/><path d="M14.5 6.5l3 3"/></symbol>
  <symbol id="location" viewBox="0 0 24 24"><circle cx="12" cy="12" r="3"/><circle cx="12" cy="12" r="8"/><path d="M12 2v3M12 19v3M2 12h3M19 12h3"/></symbol>
  <symbol id="window" viewBox="0 0 24 24"><rect x="3" y="4" width="18" height="16" rx="2"/><path d="M3 8h18"/><circle cx="6" cy="6" r=".7"/><circle cx="9" cy="6" r=".7"/></symbol>
</svg>
